TITLE ""
FILE "1Q_t_1778-1787.mp3" MP3
  TRACK 01 AUDIO
    TITLE "1Q_t_1778-1787_01"
    INDEX 01 00:00:00
  TRACK 02 AUDIO
    TITLE "1Q_t_1778-1787_02"
    INDEX 01 00:01:25
  TRACK 03 AUDIO
    TITLE "1Q_t_1778-1787_03"
    INDEX 01 00:01:35
  TRACK 04 AUDIO
    TITLE "1Q_t_1778-1787_04"
    INDEX 01 00:04:32
  TRACK 05 AUDIO
    TITLE "1Q_t_1778-1787_05"
    INDEX 01 00:04:39
  TRACK 06 AUDIO
    TITLE "1Q_t_1778-1787_06"
    INDEX 01 00:09:74
  TRACK 07 AUDIO
    TITLE "1Q_t_1778-1787_07"
    INDEX 01 00:10:42
  TRACK 08 AUDIO
    TITLE "1Q_t_1778-1787_08"
    INDEX 01 00:11:47
  TRACK 09 AUDIO
    TITLE "1Q_t_1778-1787_09"
    INDEX 01 00:11:57
  TRACK 10 AUDIO
    TITLE "1Q_t_1778-1787_10"
    INDEX 01 00:14:18
  TRACK 11 AUDIO
    TITLE "1Q_t_1778-1787_11"
    INDEX 01 00:14:26
  TRACK 12 AUDIO
    TITLE "1Q_t_1778-1787_12"
    INDEX 01 00:18:63
  TRACK 13 AUDIO
    TITLE "1Q_t_1778-1787_13"
    INDEX 01 00:19:35
  TRACK 14 AUDIO
    TITLE "1Q_t_1778-1787_14"
    INDEX 01 00:20:46
  TRACK 15 AUDIO
    TITLE "1Q_t_1778-1787_15"
    INDEX 01 00:20:58
  TRACK 16 AUDIO
    TITLE "1Q_t_1778-1787_16"
    INDEX 01 00:22:73
  TRACK 17 AUDIO
    TITLE "1Q_t_1778-1787_17"
    INDEX 01 00:23:07
  TRACK 18 AUDIO
    TITLE "1Q_t_1778-1787_18"
    INDEX 01 00:27:03
  TRACK 19 AUDIO
    TITLE "1Q_t_1778-1787_19"
    INDEX 01 00:27:52
  TRACK 20 AUDIO
    TITLE "1Q_t_1778-1787_20"
    INDEX 01 00:28:56
  TRACK 21 AUDIO
    TITLE "1Q_t_1778-1787_21"
    INDEX 01 00:28:67
  TRACK 22 AUDIO
    TITLE "1Q_t_1778-1787_22"
    INDEX 01 00:31:21
  TRACK 23 AUDIO
    TITLE "1Q_t_1778-1787_23"
    INDEX 01 00:31:30
  TRACK 24 AUDIO
    TITLE "1Q_t_1778-1787_24"
    INDEX 01 00:35:30
  TRACK 25 AUDIO
    TITLE "1Q_t_1778-1787_25"
    INDEX 01 00:36:02
  TRACK 26 AUDIO
    TITLE "1Q_t_1778-1787_26"
    INDEX 01 00:37:27
  TRACK 27 AUDIO
    TITLE "1Q_t_1778-1787_27"
    INDEX 01 00:37:41
  TRACK 28 AUDIO
    TITLE "1Q_t_1778-1787_28"
    INDEX 01 00:38:70
  TRACK 29 AUDIO
    TITLE "1Q_t_1778-1787_29"
    INDEX 01 00:39:04
  TRACK 30 AUDIO
    TITLE "1Q_t_1778-1787_30"
    INDEX 01 00:45:52
  TRACK 31 AUDIO
    TITLE "1Q_t_1778-1787_31"
    INDEX 01 00:46:22
  TRACK 32 AUDIO
    TITLE "1Q_t_1778-1787_32"
    INDEX 01 00:47:33
  TRACK 33 AUDIO
    TITLE "1Q_t_1778-1787_33"
    INDEX 01 00:47:45
  TRACK 34 AUDIO
    TITLE "1Q_t_1778-1787_34"
    INDEX 01 00:51:53
  TRACK 35 AUDIO
    TITLE "1Q_t_1778-1787_35"
    INDEX 01 00:51:63
  TRACK 36 AUDIO
    TITLE "1Q_t_1778-1787_36"
    INDEX 01 00:58:08
  TRACK 37 AUDIO
    TITLE "1Q_t_1778-1787_37"
    INDEX 01 00:58:55
  TRACK 38 AUDIO
    TITLE "1Q_t_1778-1787_38"
    INDEX 01 00:59:58
  TRACK 39 AUDIO
    TITLE "1Q_t_1778-1787_39"
    INDEX 01 00:59:68
  TRACK 40 AUDIO
    TITLE "1Q_t_1778-1787_40"
    INDEX 01 01:02:04
  TRACK 41 AUDIO
    TITLE "1Q_t_1778-1787_41"
    INDEX 01 01:02:13
  TRACK 42 AUDIO
    TITLE "1Q_t_1778-1787_42"
    INDEX 01 01:06:72
  TRACK 43 AUDIO
    TITLE "1Q_t_1778-1787_43"
    INDEX 01 01:07:44
  TRACK 44 AUDIO
    TITLE "1Q_t_1778-1787_44"
    INDEX 01 01:08:65
  TRACK 45 AUDIO
    TITLE "1Q_t_1778-1787_45"
    INDEX 01 01:09:02
  TRACK 46 AUDIO
    TITLE "1Q_t_1778-1787_46"
    INDEX 01 01:10:19
  TRACK 47 AUDIO
    TITLE "1Q_t_1778-1787_47"
    INDEX 01 01:10:31
  TRACK 48 AUDIO
    TITLE "1Q_t_1778-1787_48"
    INDEX 01 01:14:71
  TRACK 49 AUDIO
    TITLE "1Q_t_1778-1787_49"
    INDEX 01 01:15:43
  TRACK 50 AUDIO
    TITLE "1Q_t_1778-1787_50"
    INDEX 01 01:16:68
  TRACK 51 AUDIO
    TITLE "1Q_t_1778-1787_51"
    INDEX 01 01:17:05
  TRACK 52 AUDIO
    TITLE "1Q_t_1778-1787_52"
    INDEX 01 01:19:71
  TRACK 53 AUDIO
    TITLE "1Q_t_1778-1787_53"
    INDEX 01 01:20:03
  TRACK 54 AUDIO
    TITLE "1Q_t_1778-1787_54"
    INDEX 01 01:24:33
  TRACK 55 AUDIO
    TITLE "1Q_t_1778-1787_55"
    INDEX 01 01:25:05
  TRACK 56 AUDIO
    TITLE "1Q_t_1778-1787_56"
    INDEX 01 01:26:14
  TRACK 57 AUDIO
    TITLE "1Q_t_1778-1787_57"
    INDEX 01 01:26:26
  TRACK 58 AUDIO
    TITLE "1Q_t_1778-1787_58"
    INDEX 01 01:29:38
  TRACK 59 AUDIO
    TITLE "1Q_t_1778-1787_59"
    INDEX 01 01:29:45
  TRACK 60 AUDIO
    TITLE "1Q_t_1778-1787_60"
    INDEX 01 01:34:68
